<svg width="318" height="309" viewBox="0 0 318 309" fill="none" xmlns="http://www.w3.org/2000/svg">
<rect width="318" height="309" fill="url(#paint0_linear)"/>
<mask id="mask0" style="mask-type:alpha" maskUnits="userSpaceOnUse" x="0" y="0" width="318" height="309">
<rect width="318" height="309" fill="#00CE6B"/>
</mask>
<g mask="url(#mask0)">
<path d="M-79.8102 -34.1218C-79.3609 -59.8373 -68.7818 -84.3357 -50.3736 -102.29C-31.9653 -120.243 -7.21639 -130.201 18.4914 -129.997H259.122C284.815 -129.997 309.457 -119.786 327.625 -101.61C345.793 -83.434 356 -58.7822 356 -33.0776V-33.0776C356 -7.37297 345.793 17.2789 327.625 35.4548C309.457 53.6307 284.815 63.8418 259.122 63.8418H95.6335C75.9915 63.601 56.8064 69.7723 40.9855 81.4203C25.1645 93.0684 13.57 109.558 7.9591 128.391C3.58551 143.62 3.58551 159.772 7.9591 175C-23.962 143.873 -48.3375 105.849 -63.3001 63.8418C-74.3346 32.7203 -79.9823 -0.0561844 -80 -33.0776L-79.8102 -34.1218ZM235.021 -0.707844C241.416 -0.726607 247.662 -2.64098 252.971 -6.2092C258.279 -9.77742 262.412 -14.8394 264.846 -20.7558C267.28 -26.6723 267.908 -33.1777 266.649 -39.4506C265.389 -45.7234 262.3 -51.4823 257.771 -55.9998C253.243 -60.5173 247.477 -63.5908 241.203 -64.8321C234.929 -66.0734 228.429 -65.4269 222.522 -62.9741C216.615 -60.5214 211.567 -56.3724 208.016 -51.0513C204.465 -45.7302 202.57 -39.4757 202.57 -33.0776C202.57 -28.8187 203.41 -24.6017 205.042 -20.6683C206.674 -16.7348 209.066 -13.1621 212.08 -10.1551C215.095 -7.14803 218.673 -4.76568 222.609 -3.14454C226.546 -1.5234 230.764 -0.695355 235.021 -0.707844V-0.707844ZM138.142 -0.707844C144.542 -0.707844 150.797 -2.60629 156.118 -6.16312C161.439 -9.71995 165.586 -14.7754 168.035 -20.6902C170.484 -26.605 171.125 -33.1135 169.877 -39.3926C168.628 -45.6717 165.547 -51.4394 161.022 -55.9664C156.496 -60.4934 150.731 -63.5763 144.455 -64.8253C138.178 -66.0743 131.673 -65.4333 125.76 -62.9833C119.848 -60.5333 114.795 -56.3844 111.239 -51.0612C107.684 -45.7381 105.786 -39.4797 105.786 -33.0776C105.786 -24.558 109.142 -16.3816 115.129 -10.3219C121.115 -4.26222 129.247 -0.807781 137.763 -0.707844H138.142ZM41.264 -0.707844C47.6634 -0.707844 53.9191 -2.60629 59.2401 -6.16312C64.561 -9.71995 68.7081 -14.7754 71.1571 -20.6902C73.606 -26.605 74.2468 -33.1135 72.9983 -39.3926C71.7499 -45.6717 68.6682 -51.4394 64.1432 -55.9664C59.6181 -60.4934 53.8528 -63.5763 47.5764 -64.8253C41.2999 -66.0743 34.7942 -65.4333 28.8819 -62.9833C22.9696 -60.5333 17.9163 -56.3844 14.361 -51.0612C10.8056 -45.7381 8.90794 -39.4797 8.90794 -33.0776C8.90794 -24.4926 12.3169 -16.2592 18.3848 -10.1887C24.4528 -4.11822 32.6827 -0.707844 41.264 -0.707844Z" fill="white" fill-opacity="0.1"/>
</g>
<path d="M310.9 186.611C310.663 173.037 305.082 160.105 295.371 150.627C285.661 141.15 272.605 135.894 259.044 136.002H132.106C118.552 136.002 105.553 141.392 95.9685 150.986C86.3843 160.581 81 173.594 81 187.162H81C81 200.731 86.3843 213.744 95.9685 223.338C105.553 232.933 118.552 238.323 132.106 238.323H218.349C228.711 238.196 238.831 241.454 247.177 247.602C255.523 253.751 261.64 262.455 264.6 272.397C266.907 280.435 266.907 288.962 264.6 297C281.439 280.569 294.297 260.498 302.19 238.323C308.011 221.895 310.991 204.593 311 187.162L310.9 186.611ZM144.819 204.249C141.446 204.239 138.151 203.229 135.35 201.345C132.55 199.462 130.37 196.79 129.086 193.667C127.802 190.543 127.471 187.109 128.135 183.798C128.799 180.487 130.429 177.447 132.818 175.062C135.207 172.678 138.248 171.055 141.558 170.4C144.867 169.745 148.297 170.086 151.413 171.381C154.529 172.676 157.192 174.866 159.065 177.675C160.938 180.483 161.938 183.785 161.938 187.162C161.938 189.41 161.495 191.636 160.634 193.713C159.773 195.789 158.511 197.675 156.921 199.262C155.331 200.85 153.443 202.107 151.367 202.963C149.29 203.819 147.065 204.256 144.819 204.249V204.249ZM195.925 204.249C192.549 204.249 189.249 203.247 186.442 201.37C183.635 199.492 181.448 196.823 180.156 193.701C178.864 190.579 178.526 187.143 179.184 183.829C179.843 180.514 181.469 177.47 183.856 175.08C186.243 172.69 189.284 171.063 192.595 170.404C195.906 169.744 199.338 170.083 202.457 171.376C205.576 172.669 208.241 174.859 210.117 177.669C211.992 180.479 212.993 183.783 212.993 187.162C212.994 191.66 211.223 195.976 208.065 199.174C204.907 202.373 200.617 204.197 196.125 204.249H195.925ZM247.03 204.249C243.655 204.249 240.355 203.247 237.548 201.37C234.741 199.492 232.553 196.823 231.261 193.701C229.969 190.579 229.631 187.143 230.29 183.829C230.948 180.514 232.574 177.47 234.961 175.08C237.348 172.69 240.39 171.063 243.701 170.404C247.012 169.744 250.443 170.083 253.562 171.376C256.681 172.669 259.347 174.859 261.222 177.669C263.098 180.479 264.099 183.783 264.099 187.162C264.099 191.694 262.301 196.04 259.1 199.245C255.899 202.449 251.557 204.249 247.03 204.249Z" fill="white" fill-opacity="0.1"/>
<defs>
<linearGradient id="paint0_linear" x1="99.5" y1="28" x2="478.5" y2="508" gradientUnits="userSpaceOnUse">
<stop stop-color="#00CE6B"/>
<stop offset="1" stop-color="#8D87A9"/>
</linearGradient>
</defs>
</svg>
